<svg preserveAspectRatio="none" width="100%" height="100%" overflow="visible" style="display: block;" viewBox="0 0 21.6217 21" fill="none" xmlns="http://www.w3.org/2000/svg">
<path id="Vector" d="M1.59216 17.1258C2.25298 16.4478 3.02937 15.8812 3.75701 15.2795C4.74404 14.4193 5.74063 13.5442 6.70269 12.6603C7.1562 12.1445 7.65995 11.6898 8.18143 11.2478C8.99634 10.3335 9.90573 9.50012 10.8385 8.70824C11.4432 8.12874 12.0072 7.53118 12.6467 6.97697C13.0091 6.60125 13.3321 6.24254 13.7628 5.93552C14.114 5.5092 14.613 5.22619 14.9205 4.76239C15.2125 4.25922 14.2754 4.52348 14.0338 4.49906C13.5721 4.53758 13.1233 4.59897 12.6681 4.63093C11.7494 4.65852 10.8298 4.72457 9.91002 4.79441C9.11983 4.88218 8.32862 5.05622 7.54181 5.12293C6.13774 5.56568 4.65079 5.87353 3.17492 5.92289C2.09375 6.16203 2.03169 5.79557 1.75023 4.87362C1.62508 4.58835 1.56035 4.27846 1.46349 3.98258C1.36483 3.70661 1.20361 3.44769 1.19216 3.14857C1.1604 2.92322 1.2599 2.71107 1.36052 2.51723C1.45053 2.29513 1.52888 2.05641 1.83006 2.06404C2.57132 2.08927 3.32221 1.9794 4.06139 1.95325C4.85343 1.9171 5.65285 1.74765 6.44885 1.67926C6.97863 1.68978 7.45347 1.65848 7.97389 1.55334C8.91446 1.5056 9.82538 1.37663 10.7649 1.28264C12.0003 1.09956 13.2426 0.959537 14.4718 0.754407C15.6002 0.465312 16.7565 0.377257 17.895 0.187723C18.5962 0.0806721 19.3072 0.0562006 20.0147 0.0494254C20.295 0.0447799 20.6778 -0.103888 20.8763 0.138051C21.0181 0.377976 21.2791 0.572021 21.3434 0.861134C21.3869 1.36102 21.295 1.87882 21.3586 2.37892C21.3808 2.71278 21.2904 3.08105 21.2813 3.40165C21.334 4.06905 21.3153 4.76009 21.3722 5.43526C21.5588 6.47991 21.4756 7.54382 21.5351 8.59846C21.7307 10.3378 21.5334 12.0982 21.5345 13.843C21.1883 15.0065 21.246 16.2339 21.1022 17.4331C20.9597 18.3766 21.1168 19.3633 20.8172 20.2854C20.6524 20.7077 20.1806 20.9303 19.75 20.8882C19.1403 20.8502 18.421 20.8057 17.8395 20.6345C17.4821 20.5209 17.0804 20.4901 16.7692 20.2712C15.9514 19.5507 16.4505 18.2626 16.6053 17.335C17.0707 15.1539 17.7444 12.9604 17.8956 10.7355C17.9817 9.49409 18.2196 8.14116 17.8906 6.94823C17.5952 6.92378 17.1488 7.50141 16.9033 7.69785C16.5824 8.13409 16.1326 8.36959 15.7816 8.7644C15.163 9.42273 14.3835 9.91421 13.7739 10.5847C13.3418 11.084 12.8097 11.4619 12.3406 11.9173C11.8604 12.3852 11.3855 12.8552 10.8594 13.269C10.1862 13.9171 9.51537 14.5923 8.80768 15.209C8.25635 15.7935 7.64204 16.2991 7.08293 16.8807C6.77939 17.1498 6.42187 17.3518 6.11251 17.6025C5.69957 18.0127 5.30242 18.4307 4.79339 18.7263C4.1933 19.1634 3.79133 19.7999 3.20224 20.2512C2.24848 21.1709 2.19162 21.2923 1.17052 20.3413C-0.873389 18.6778 0.0809665 18.6366 1.58831 17.1301L1.59216 17.1258Z" fill="var(--fill-0, white)"/>
</svg>
