<svg preserveAspectRatio="none" width="100%" height="100%" overflow="visible" style="display: block;" viewBox="0 0 23.0732 22" fill="none" xmlns="http://www.w3.org/2000/svg">
<g id="Group 6">
<path id="Vector" d="M16.9462 1.63834C17.2426 1.79827 17.5241 1.98593 17.7799 2.20747C17.9888 2.36622 18.1947 2.52212 18.3798 2.71167C18.7349 3.01993 19.0882 3.33127 19.3959 3.69307C19.5316 3.85775 19.7065 3.97148 19.8525 4.12975C20.0215 4.33257 20.2074 4.51952 20.3698 4.72779C20.5305 4.93819 20.6333 5.20048 20.7924 5.4078C20.9109 5.563 21.0624 5.69331 21.1602 5.8677C21.2702 6.06602 21.3234 6.28779 21.4449 6.47734C21.9874 7.37297 22.4828 8.33661 22.7439 9.37108C22.8986 9.95561 23.0846 10.5304 23.0726 11.1484C23.0694 11.3159 23.082 11.4848 23.0579 11.6497C22.981 12.0613 23.0191 12.4854 22.9548 12.8991C22.8814 13.2543 22.7443 13.5936 22.6275 13.9336C22.5363 14.1554 22.4084 14.3582 22.2895 14.5648C22.0655 14.9425 21.9201 15.3682 21.6784 15.7348C21.3726 16.149 21.1382 16.6143 20.8239 17.0209C20.5422 17.3844 20.2504 17.7355 19.9306 18.0547C19.8139 18.1795 19.712 18.3274 19.5876 18.4404C19.5263 18.497 19.4569 18.5413 19.3883 18.5875C19.1867 18.7226 18.9978 18.91 18.7964 19.0481C18.6651 19.1465 18.5076 19.1955 18.371 19.2848C18.2643 19.3571 18.1711 19.4528 18.0632 19.5237C17.9704 19.5867 17.8719 19.6426 17.7748 19.6988C17.5282 19.8417 17.2934 19.9964 17.039 20.1217C16.8025 20.244 16.575 20.3885 16.3307 20.4876C16.1158 20.57 15.9113 20.6776 15.7012 20.7714C15.4384 20.8925 15.1624 20.9659 14.8897 21.0609C14.6376 21.1595 14.388 21.2808 14.1277 21.3498C13.9431 21.3983 13.7606 21.4469 13.5797 21.5125C13.2693 21.6279 12.9382 21.6464 12.615 21.6957C12.1606 21.7928 11.6996 21.8829 11.2382 21.9035C10.9477 21.9097 10.6621 21.9343 10.3713 21.9585C10.0423 21.9736 9.71351 21.9509 9.38406 21.9753C9.13313 21.994 8.88128 22.0149 8.63035 21.985C8.4189 21.9656 8.21503 21.9942 8.00451 21.9762C7.74806 21.9566 7.50471 21.8623 7.25492 21.8071C7.13141 21.7822 7.00537 21.767 6.88392 21.7317C6.81022 21.7106 6.73997 21.6784 6.66972 21.6469C6.32167 21.4917 5.93621 21.4479 5.59115 21.2849C5.4596 21.2195 5.31266 21.2254 5.17124 21.2071C5.05783 21.1908 4.95176 21.1453 4.84593 21.1038C4.77292 21.0744 4.69899 21.0474 4.62553 21.019C4.37046 20.923 4.14478 20.7529 3.895 20.642C3.65118 20.534 3.39933 20.439 3.17825 20.2843C2.66858 19.9265 2.51889 19.8305 1.90866 19.286C1.68275 19.0617 1.48462 18.8001 1.29752 18.5387C1.00113 18.1151 0.777973 17.6244 0.575941 17.1427C0.38447 16.6439 0.25315 16.1165 0.149838 15.5905C0.0609901 15.0041 0.104381 14.4027 0.0724691 13.8132C0.042394 13.5609 -0.00880264 13.2967 0.00129894 13.0439C0.00015103 12.7468 0.0867031 12.3816 0.119763 12.0615C0.141573 11.699 0.240293 11.3498 0.301591 10.9932C0.429468 10.2892 0.566299 9.57414 0.831925 8.91497C0.864525 8.83252 0.891845 8.74888 0.915492 8.66287C0.954521 8.52331 0.990106 8.38044 1.04475 8.24681C1.13727 8.03427 1.24081 7.82861 1.32644 7.61252C1.39922 7.40449 1.52595 7.22394 1.62903 7.0332C1.68757 6.91829 1.72913 6.79508 1.78216 6.67708C1.94126 6.33874 2.17452 6.05275 2.34188 5.7208C2.60269 5.27417 2.91492 4.8664 3.2237 4.45554C3.50196 4.0762 3.77171 3.68289 4.10162 3.34904C4.24764 3.19716 4.40605 3.06021 4.55849 2.9152C4.73848 2.73703 4.89873 2.53421 5.10857 2.39725C5.28052 2.28281 5.47727 2.22002 5.65704 2.12312C5.88363 2.00678 6.07074 1.82149 6.30124 1.7125C6.59832 1.57152 6.91032 1.46182 7.1973 1.30023C7.37522 1.19123 7.56118 1.09362 7.74875 1.00547C7.96846 0.891033 8.19529 0.79531 8.42671 0.709538C8.71001 0.595807 8.99377 0.484683 9.28833 0.408862C9.51951 0.352234 9.75047 0.308163 9.97845 0.238029C10.1373 0.191115 10.2962 0.138752 10.4626 0.130222C10.56 0.124772 10.6582 0.129274 10.7554 0.120507C10.9151 0.101789 11.0788 0.0745412 11.2414 0.0686177C11.4494 0.0503734 11.6544 -0.002227 11.8645 0.00298566C12.1312 -0.00957211 12.3985 0.0188605 12.6618 0.0624573C12.7929 0.0780953 12.9267 0.0776214 13.0553 0.110793C13.1311 0.129274 13.2052 0.156285 13.2824 0.168369C13.4098 0.190167 13.5436 0.16908 13.6738 0.190641C13.8088 0.212203 13.936 0.268357 14.068 0.30224C14.2096 0.340387 14.3598 0.363133 14.4991 0.41834C14.6541 0.482076 14.8063 0.551973 14.9675 0.598413C15.1904 0.662861 15.3878 0.799101 15.5931 0.904776C15.6996 0.955481 15.8156 0.982255 15.9207 1.03722C16.1372 1.14977 16.3571 1.25639 16.5548 1.3995C16.7095 1.51158 16.9233 1.62649 16.9437 1.63786L16.946 1.63905L16.9462 1.63834ZM15.3486 2.41431C15.2168 2.34086 15.0731 2.28992 14.934 2.23306C14.6419 2.1089 14.3419 1.98782 14.0239 1.96176C13.6667 1.92385 13.32 1.81889 12.9612 1.79543C12.8073 1.78406 12.6526 1.78169 12.5002 1.75586C12.3863 1.73738 12.2731 1.71416 12.1576 1.70966C11.9864 1.70326 11.8158 1.72103 11.6434 1.71345C11.2861 1.70208 10.9305 1.66274 10.5708 1.66677C10.3811 1.66725 10.192 1.70587 10.0053 1.73003C9.82761 1.75373 9.64716 1.77174 9.47038 1.80301C9.10696 1.86319 8.74904 1.99422 8.39434 2.10748C8.25291 2.15344 8.11471 2.20581 7.97879 2.26741C7.90165 2.30201 7.82566 2.34086 7.75013 2.37948C7.56371 2.47568 7.36948 2.55103 7.18926 2.65481C6.95624 2.78678 6.75627 2.96686 6.5345 3.12395C6.4158 3.20901 6.29229 3.28696 6.18025 3.3815C6.06271 3.4803 5.95641 3.59593 5.84438 3.70184C5.66094 3.87125 5.46809 4.03427 5.3021 4.22358C5.06724 4.48824 4.81861 4.74674 4.59499 5.02372C4.43291 5.22939 4.26715 5.436 4.10507 5.64356C3.99946 5.78264 3.89959 5.93096 3.7972 6.0736C3.70559 6.20107 3.60825 6.32404 3.52124 6.45531C3.4138 6.61548 3.32747 6.792 3.22875 6.95715C3.12843 7.12466 3.01065 7.28768 2.91538 7.46301C2.83319 7.61252 2.7611 7.76795 2.68327 7.91983C2.54506 8.18402 2.43899 8.47 2.37747 8.76404C2.34027 8.93653 2.32007 9.11377 2.27232 9.28341C2.20298 9.51893 2.11437 9.74852 2.0471 9.98428C1.84071 10.6667 1.71719 11.3758 1.65314 12.0864C1.61572 12.5167 1.62857 12.9543 1.6963 13.3806C1.75278 13.7443 1.68734 14.9716 1.72247 15.0825C1.79846 15.3332 1.88501 15.5869 2.02598 15.8078C2.11643 15.9535 2.20367 16.1011 2.2737 16.2591C2.33132 16.3842 2.82469 17.6249 2.93742 17.7514C3.13003 17.9793 3.30429 18.2314 3.52813 18.4255C3.77217 18.6266 4.18358 18.8157 4.45679 18.9678C4.57502 19.032 4.69325 19.0951 4.8108 19.1612C4.95314 19.241 5.08997 19.3341 5.23851 19.4019C5.40266 19.4777 5.57645 19.5282 5.74474 19.5931C5.87147 19.6412 5.99452 19.7 6.11987 19.7516C6.30101 19.8277 6.49088 19.8772 6.68005 19.9324C6.93351 20.0099 7.18926 20.0779 7.44823 20.1331C7.67024 20.1852 7.89385 20.2309 8.11448 20.2892C8.2947 20.3359 8.47056 20.4153 8.65147 20.4492C8.84179 20.4849 9.03831 20.4598 9.22358 20.5067C9.41138 20.5515 10.2815 20.4222 10.4555 20.4312C10.546 20.435 10.6367 20.4354 10.7257 20.4198C10.9771 20.3757 11.9751 20.0881 12.2534 20.0265C12.4187 19.9838 12.5886 19.98 12.7578 19.9765C12.9681 19.9651 13.1779 19.9288 13.3884 19.9137C13.4931 19.9016 13.5969 19.8789 13.6965 19.8431C13.7909 19.8101 13.8829 19.7604 13.9826 19.7379C14.1118 19.7075 14.2475 19.7203 14.3758 19.6857C14.4874 19.6561 14.5868 19.59 14.6977 19.5569C14.9379 19.4768 15.2012 19.4953 15.4349 19.3931C15.5575 19.3389 15.6654 19.2474 15.7871 19.1946C15.9377 19.1278 16.103 19.1086 16.2577 19.0545C16.4793 18.9863 16.6742 18.8553 16.8856 18.7612C17.0567 18.6887 17.2433 18.6617 17.4068 18.5691C17.5112 18.511 17.609 18.4402 17.7135 18.3821C17.7906 18.338 17.8717 18.3023 17.9509 18.2627C18.1465 18.1674 18.304 18.0139 18.4856 17.8943C18.6132 17.8094 18.7494 17.7398 18.8759 17.6535C19.0958 17.5076 19.2985 17.3374 19.4944 17.1555C19.6601 17.0166 19.8316 16.8823 19.9717 16.7138C20.6602 15.9438 21 15.3559 21.3368 14.3624C21.4043 14.1608 21.4662 13.9566 21.5094 13.7481C21.5347 13.6282 21.5491 13.5052 21.5677 13.3836C21.5886 13.2476 21.6123 13.1133 21.6297 12.9771C21.685 12.5624 21.6736 12.1385 21.6412 11.7225C21.5808 10.8861 21.4318 10.0625 21.1834 9.26849C21.0486 8.80954 20.8693 8.36338 20.6788 7.9267C20.5266 7.58267 20.3741 7.23531 20.1746 6.91781C19.9898 6.63112 19.8146 6.33566 19.6124 6.06341C18.6018 4.7574 17.3994 3.54996 16.0203 2.78891C15.7972 2.67045 15.569 2.53966 15.3516 2.41526L15.349 2.41384L15.3486 2.41431Z" fill="var(--fill-0, #FDF9F1)"/>
<path id="Vector_2" d="M15.5954 8.08905C15.7255 8.26203 16.0017 8.44334 15.9078 8.67248C15.8497 8.79907 15.7101 8.85712 15.6059 8.94516C15.5686 8.9761 15.5326 9.00917 15.5007 9.04486C15.4169 9.13647 15.3501 9.24592 15.2339 9.30374C15.1036 9.3756 14.9586 9.32587 14.8612 9.20618C14.7195 9.03273 14.5895 8.84523 14.4339 8.68367C14.1343 8.3741 13.7605 8.13164 13.3609 7.96389C13.1558 7.878 12.9411 7.80519 12.7234 7.75331C12.5768 7.72214 12.4347 7.70525 12.2886 7.68645C12.0736 7.65195 11.8526 7.62625 11.6341 7.62126C11.0739 7.59794 10.5106 7.63268 9.97567 7.75784C9.78306 7.80328 9.59536 7.87395 9.41057 7.93915C9.24834 8.0003 9.11539 8.03908 8.95473 8.12331C8.61442 8.29868 8.2989 8.50521 8.00909 8.74624C7.66721 9.01726 7.34299 9.29922 7.06256 9.62829C6.8438 9.87504 6.69923 10.1822 6.67197 10.5139C6.66616 10.6115 6.67688 10.7097 6.67756 10.808C6.68471 10.9436 6.65856 11.0752 6.67353 11.2106C6.68962 11.3567 6.73632 11.503 6.76694 11.6453C6.79218 11.7762 6.84916 11.8987 6.91642 12.0167C6.96424 12.1067 7.02189 12.1935 7.09563 12.2649C7.14903 12.3151 7.19685 12.3699 7.23372 12.4317C7.27394 12.4967 7.30098 12.5735 7.35684 12.6304C7.41114 12.6849 7.48153 12.7313 7.54074 12.7836C7.61224 12.8398 7.6795 12.9009 7.75659 12.9511C7.83435 13.0047 7.92306 13.0516 8.00976 13.103C8.08395 13.146 8.15657 13.1915 8.23455 13.2274C8.41957 13.3076 8.6171 13.3566 8.80792 13.4289C8.96478 13.4846 9.12142 13.5422 9.2832 13.5831C9.59424 13.6462 9.90662 13.6919 10.215 13.7623C10.5535 13.8315 10.8902 13.9024 11.2321 13.9293C11.3928 13.9374 11.5492 13.9379 11.7083 13.9393C11.7975 13.9412 11.8888 13.9412 11.976 13.9305C12.1212 13.9177 12.2564 13.877 12.3996 13.8603C12.6037 13.8349 12.8148 13.8177 13.0097 13.758C13.1918 13.7083 13.3433 13.6088 13.4999 13.5108C13.7305 13.3756 13.9459 13.2184 14.1356 13.0375C14.273 12.9147 14.3926 12.7746 14.5023 12.6287C14.5997 12.5055 14.707 12.3922 14.7921 12.2647C14.8451 12.1888 14.8898 12.1007 14.9651 12.0432C15.0728 11.9544 15.2323 12.0072 15.3499 12.0734C15.4902 12.149 15.6171 12.2387 15.7326 12.3308C15.8767 12.4431 16.0077 12.5933 16.0709 12.7603C16.1679 13.0149 15.9795 13.1134 15.841 13.2828C15.6048 13.5784 15.3595 13.8794 15.0317 14.0847C14.6873 14.3148 14.3128 14.512 13.9184 14.6612C13.7457 14.7314 13.5486 14.755 13.381 14.8349C13.2796 14.8863 13.1813 14.943 13.0722 14.9832C12.9473 15.0305 12.8162 15.0693 12.6861 15.1028C12.5742 15.1245 12.4633 15.1469 12.3585 15.1887C12.3009 15.2102 12.2444 15.2347 12.1858 15.2549C12.1022 15.2846 12.01 15.2982 11.9224 15.3072C11.8533 15.3139 11.7852 15.3127 11.7219 15.3213C11.6265 15.3346 11.536 15.3532 11.4395 15.3698C11.0205 15.4631 10.5859 15.5093 10.1567 15.5568C9.96852 15.5744 9.77881 15.5302 9.58955 15.529C9.37146 15.5347 9.15293 15.5002 8.94222 15.4374C8.78468 15.3967 8.62693 15.3524 8.47409 15.2911C8.2922 15.2178 8.12149 15.1145 7.94027 15.0393C7.83279 14.9917 7.73067 14.9565 7.62923 14.9042C7.49851 14.8283 7.3812 14.7364 7.2478 14.6634C7.18657 14.6308 7.11954 14.6044 7.05876 14.5699C6.88089 14.474 6.74258 14.3555 6.59063 14.2296C6.38797 14.0628 6.22529 13.8579 6.07893 13.6476C6.01346 13.5486 5.96833 13.4361 5.90554 13.3328C5.82018 13.1891 5.72365 13.0668 5.66555 12.9062C5.6088 12.7636 5.55338 12.6145 5.5107 12.4681C5.47205 12.3361 5.46132 12.2228 5.44456 12.0943C5.41931 11.8837 5.36635 11.6746 5.36613 11.4633C5.36122 11.2649 5.4325 11.0795 5.4716 10.8903C5.49797 10.7623 5.50847 10.6319 5.54847 10.5072C5.57394 10.4252 5.61036 10.3445 5.64589 10.2662C5.70399 10.1377 5.74957 10.0061 5.80945 9.88075C5.85638 9.7801 5.91135 9.68326 5.95358 9.58023C5.98687 9.49957 6.01637 9.41724 6.0557 9.33943C6.11871 9.21166 6.20496 9.10078 6.27959 8.97657C6.34752 8.86426 6.40852 8.74672 6.48695 8.64107C6.58393 8.51116 6.70079 8.39766 6.80515 8.27345C6.95195 8.09714 7.1001 7.90917 7.2945 7.77497C7.51638 7.6065 7.71369 7.38831 7.97513 7.26958C8.22181 7.16631 8.47789 7.08636 8.74424 7.02212C8.84099 6.99928 8.93864 6.97382 9.03227 6.94503C9.2356 6.88388 9.42084 6.77656 9.62374 6.71208C9.79803 6.65593 9.98237 6.63523 10.1622 6.59525C10.4165 6.54814 10.659 6.49294 10.9153 6.45653C11.0744 6.44202 11.2337 6.4356 11.3943 6.44083C11.6026 6.43726 11.8211 6.44654 12.0283 6.45558C12.2334 6.45606 12.445 6.48152 12.6559 6.51935C12.8794 6.55457 13.1104 6.59192 13.3375 6.64927C13.4273 6.67235 13.5149 6.69757 13.5982 6.72803C13.775 6.79156 13.9303 6.90101 14.1046 6.9712C14.2525 7.02545 14.387 7.09636 14.5117 7.19606C14.583 7.25435 14.6583 7.30813 14.7427 7.34596C14.8862 7.4133 15.0312 7.48777 15.1494 7.59532C15.2249 7.66718 15.2996 7.7369 15.3691 7.81447C15.4446 7.90227 15.515 7.99887 15.5932 8.08715L15.595 8.08905H15.5954Z" fill="var(--fill-0, #FDF9F1)"/>
</g>
</svg>
