<svg preserveAspectRatio="none" width="100%" height="100%" overflow="visible" style="display: block;" viewBox="0 0 36.3714 16" fill="none" xmlns="http://www.w3.org/2000/svg">
<g id="Frame 33">
<rect width="36.3714" height="16" fill="black"/>
<path id="Vector" d="M7.95435 0.210853C8.18685 0.186142 8.40323 0.0771991 8.63723 0.0630172C8.7638 0.0550667 8.89186 0.0670999 9.01778 0.0503394C9.2737 -0.0199256 9.54724 -0.0568846 9.6968 0.220738C9.78253 0.382755 9.78017 0.570773 9.83281 0.742461C9.91146 0.924677 9.89706 1.12408 9.92005 1.31554C10.0342 1.7872 10.1545 2.26466 10.3949 2.69226C10.7757 3.27286 11.2671 3.83219 11.9262 4.09198C12.1234 4.18889 12.3589 4.19168 12.574 4.24604C12.8927 4.33586 13.2206 4.23981 13.5468 4.28837C14.0279 4.31115 14.013 4.54752 13.8605 4.90249C13.68 5.31485 13.4539 5.71022 13.2891 6.12816C13.2537 6.23431 13.1772 6.33487 13.0682 6.36624C12.8735 6.42362 12.6559 6.36947 12.459 6.36087C12.2235 6.32885 11.9803 6.32542 11.7525 6.25171C11.2858 6.08131 10.8483 5.79359 10.355 5.7128C10.0097 5.76351 10.0864 6.51429 10.1296 6.76699C10.1553 7.19503 10.1818 7.625 10.1809 8.05368C10.2123 8.25158 10.2899 8.44347 10.2699 8.64653C10.2523 8.81306 10.3068 8.97744 10.2783 9.14246C10.165 9.86016 10.1476 10.5886 9.9366 11.2884C9.89448 11.4298 9.86934 11.5757 9.84399 11.7206C9.82379 11.9116 9.73225 12.0783 9.65855 12.252C9.57775 12.5504 9.41337 12.8102 9.26511 13.0773C9.13833 13.4514 8.84502 13.7129 8.58738 13.9978C8.43955 14.1678 8.30138 14.3457 8.12969 14.4927C7.06819 15.5808 5.47788 16.2642 3.95741 15.9025C3.6843 15.8327 3.40002 15.8243 3.1254 15.7697C2.73304 15.6236 2.31059 15.5512 1.95733 15.3187C1.56045 15.0989 1.25081 14.7531 0.952128 14.4164C0.690622 14.0945 0.530108 13.7058 0.401826 13.3167C0.243031 12.9727 0.126568 12.6031 0.0939061 12.2245C0.0846664 12.0302 0.0294427 11.8435 0.0019383 11.6522C-0.00558242 11.5508 0.0111781 11.4498 0.0116079 11.3478C-0.0210535 10.34 0.152783 9.27375 0.762391 8.44669C1.09996 8.06507 1.42658 7.66647 1.82023 7.3405C1.95926 7.22425 2.12665 7.15119 2.28115 7.06159C2.747 6.7397 3.27539 6.5317 3.81924 6.38085C3.9587 6.34153 4.09106 6.27728 4.23439 6.25386C4.46323 6.21175 4.69766 6.2154 4.93059 6.20723C5.44393 6.20465 6.70913 6.17371 7.01684 6.61034C7.05337 6.85487 6.8733 7.08522 6.78842 7.29924C6.70999 7.44278 6.68915 7.60157 6.64166 7.75392C6.53766 7.97697 6.44569 8.25652 6.23275 8.38674C6.07524 8.47462 5.90356 8.37471 5.74175 8.34849C5.65151 8.33431 5.55932 8.33345 5.468 8.3298C5.19231 8.33087 4.91405 8.30809 4.639 8.31991C3.72792 8.43509 3.00163 9.08165 2.50355 9.81911C2.39804 10.0209 2.31123 10.2345 2.22549 10.4455C2.17972 10.6737 2.15652 10.9075 2.1071 11.1367C2.01083 11.4094 2.04908 11.6905 2.11118 11.9666C2.14148 12.2423 2.22893 12.4948 2.3671 12.7361C2.5693 13.062 2.88667 13.2999 3.17268 13.5487C3.7421 13.8979 4.4093 14.1487 5.08681 14.1102C5.31114 14.0889 5.51312 14.0849 5.81911 14.0303C6.16098 13.9693 6.29012 13.8999 6.67411 13.6317C6.84279 13.5139 7.0972 13.3029 7.19583 13.1244C7.29253 12.9651 7.38793 12.776 7.47109 12.6099C7.59293 12.345 7.68489 12.2073 7.75946 11.9073C7.8106 11.7014 7.79083 11.3503 7.82371 11.1468C7.87614 10.831 7.92857 10.5226 7.96338 10.2059C8.00463 10.0198 8.06587 9.7583 8.08564 9.56706C8.11401 9.29395 8.04718 9.0245 8.08414 8.71937C8.10326 8.56272 8.0764 8.04315 8.08414 7.88285C8.09639 7.62672 8.07511 7.47415 8.07447 7.25046C8.06072 7.02527 8.0562 6.22206 8.07447 5.99558C8.03858 5.34622 7.89268 5.10169 7.86797 4.8535C7.85293 4.70244 7.78933 4.56019 7.76612 4.41279C7.72744 4.13753 7.7399 3.72303 7.71175 3.44025C7.67931 3.11579 7.61742 2.93701 7.58863 2.61555C7.57896 2.49436 7.57746 2.24897 7.56134 2.12885C7.53835 1.93568 7.52309 1.87121 7.51041 1.67739C7.4814 1.38172 7.43607 1.08691 7.4582 0.791453C7.42446 0.485037 7.61184 0.196886 7.95005 0.211498" fill="var(--fill-0, white)"/>
</g>
</svg>
