<svg preserveAspectRatio="none" width="100%" height="100%" overflow="visible" style="display: block;" viewBox="0 0 36.3714 16" fill="none" xmlns="http://www.w3.org/2000/svg">
<g id="Frame 32">
<rect width="36.3714" height="16" fill="black"/>
<g id="Vector">
<path d="M0.0431522 8.17104C0.0556037 7.70762 0.0400938 7.27934 0.0525454 6.8101C0.120483 6.22563 0.136211 5.65436 0.135337 5.06877C0.13075 4.41918 0.106502 3.7857 0.14342 3.13745C0.189731 2.73602 0.329974 2.31042 0.477645 1.94434C0.666166 1.54873 0.875657 1.15445 1.18061 0.844091C1.61423 0.501508 2.16275 0.338383 2.70013 0.242836C2.88691 0.21397 3.08963 0.175035 3.27312 0.167651C3.61521 0.168993 3.95556 0.196069 4.30136 0.167651C4.69697 0.134981 5.10153 0.111038 5.49277 0.104102C6.02579 0.0573349 6.56448 0.0497269 7.10339 0.0788163C7.60626 0.115737 8.08466 0.0302594 8.58359 0.0190712C8.9768 0.0403288 9.35231 -0.0223252 9.73743 0.0251128C10.2169 0.0575587 10.7006 0.0233227 11.1807 0.0228752C11.5235 0.0190712 11.8651 -0.0232203 12.2092 0.0177286C12.9901 0.0926897 13.7685 0.155791 14.5007 0.465034C15.2508 0.828875 15.5383 1.70961 15.7646 2.46996C15.8699 2.80158 15.9831 3.13186 16.0578 3.47243C16.1386 3.8723 16.2789 4.26836 16.3243 4.66935C16.3774 5.3478 16.3791 6.04416 16.361 6.72529C16.3223 7.26032 16.3274 7.81122 16.2902 8.34356C16.219 8.89245 16.2555 9.44403 16.262 9.99382C16.2727 11.0903 16.2264 12.1874 16.0554 13.2702C16.0187 13.4917 16.0045 13.7247 15.9632 13.9457C15.9328 14.1901 15.9047 14.425 15.7836 14.6372C15.5617 15.1021 14.9645 15.1518 14.5315 15.2975C13.9541 15.4593 13.351 15.532 12.7535 15.5588C12.3804 15.5976 12.0097 15.5651 11.6445 15.6228C11.2537 15.6945 10.8334 15.7345 10.4397 15.8133C10.201 15.858 9.95916 15.8714 9.71843 15.9097C9.27236 15.9815 8.80073 15.9829 8.34832 15.9833C8.20327 15.9844 8.0757 16.0035 7.93677 15.9994C7.68949 15.9914 7.41643 15.9883 7.17133 15.9674C6.83688 15.939 6.51817 15.9697 6.16865 15.9587C5.84994 15.963 5.55023 15.9043 5.23653 15.8873C4.92 15.8643 4.63515 15.7969 4.335 15.7112C4.06019 15.6412 3.79172 15.6242 3.51407 15.5656C3.21982 15.5047 2.95026 15.3671 2.67829 15.2402C2.38142 15.0965 2.04326 15.0299 1.75426 14.8688C1.51724 14.7417 1.34401 14.5421 1.13976 14.3724C0.921095 14.1972 0.704394 14.0057 0.600631 13.7316C0.463009 13.3731 0.380654 12.9755 0.312498 12.6036C0.26728 12.2563 0.225993 11.9099 0.142764 11.5642C0.0553852 11.0994 0.0903369 10.628 0.0298268 10.1581C-0.0435717 9.49572 0.0414045 8.84099 0.0429337 8.17484M8.67097 1.13521C7.97631 1.12066 7.30305 1.23098 6.60992 1.27529C5.90302 1.37687 5.22168 1.35248 4.53619 1.48495C4.18362 1.55298 3.61587 1.62257 3.3013 1.79733C2.62149 2.07256 2.26236 2.32698 2.02076 3.0155C1.70292 3.75572 1.85758 4.72305 1.88663 5.51809C1.86129 6.06743 1.84207 6.6331 1.84382 7.18558C1.83508 7.5615 1.7868 7.93608 1.7654 8.30239C1.7062 9.13099 1.73459 9.96675 1.7595 10.7987C1.81826 11.6219 1.82634 12.4872 2.25931 13.2131C2.45132 13.5497 2.74208 13.805 3.06756 13.9979C3.30087 14.1039 3.55208 14.1594 3.78604 14.2335C4.30311 14.5181 4.95211 14.5034 5.5227 14.5195C6.11273 14.5969 6.70057 14.5134 7.29497 14.4953C7.99007 14.4756 8.6808 14.4893 9.37175 14.4161C9.89494 14.3635 10.426 14.3677 10.9422 14.2782C11.4356 14.2172 11.9497 14.2438 12.4381 14.129C12.9453 14.016 13.4797 13.8459 13.9061 13.5416C14.4421 13.1377 14.4524 12.3959 14.4906 11.7786C14.5658 11.0495 14.5938 10.3111 14.5898 9.58187C14.5695 8.6076 14.6966 7.61655 14.6763 6.64183C14.6296 5.90296 14.6505 5.19542 14.5686 4.45699C14.571 4.12135 14.5697 3.81434 14.5007 3.49123C14.3567 2.50398 13.7259 1.55678 12.7173 1.37218C12.4619 1.33123 12.1989 1.36345 11.9392 1.3489C11.3889 1.32272 10.855 1.23076 10.3052 1.20704C10.0002 1.19093 9.67059 1.14192 9.37678 1.13409C9.14129 1.13342 8.91192 1.14147 8.67534 1.13499M14.5955 8.75887L14.1416 2.37733H14.1376" fill="var(--fill-0, white)"/>
<path d="M6.04293 5.54937C6.04009 5.5487 6.03572 5.54848 6.03048 5.54915C6.02676 5.55385 6.02305 5.55832 6.01955 5.56302C6.02589 5.5619 6.03157 5.56034 6.03572 5.55922L6.03856 5.55788C6.04249 5.55497 6.04883 5.5525 6.04293 5.54937ZM6.04293 5.54937C6.04009 5.5487 6.03572 5.54848 6.03048 5.54915C6.02676 5.55385 6.02305 5.55832 6.01955 5.56302C6.02589 5.5619 6.03157 5.56034 6.03572 5.55922L6.03856 5.55788C6.04249 5.55497 6.04883 5.5525 6.04293 5.54937ZM8.6619 3.78454L8.65273 3.80826L8.66474 3.78566L8.6619 3.78454ZM6.03048 5.54915C6.02676 5.55385 6.02305 5.55832 6.01955 5.56302C6.02589 5.5619 6.03157 5.56034 6.03572 5.55922L6.03856 5.55788C6.04249 5.55497 6.04883 5.5525 6.04293 5.54937C6.04009 5.5487 6.03572 5.54848 6.03048 5.54915ZM5.38584 7.48561C5.37339 7.49142 5.36246 7.49993 5.35416 7.51022L5.41096 7.52946L5.41271 7.5279L5.40943 7.47777C5.40135 7.47934 5.39348 7.4818 5.38584 7.48561ZM5.33647 7.57108C5.33669 7.56191 5.33712 7.55274 5.33756 7.54334C5.33559 7.55251 5.33516 7.56191 5.33647 7.57108Z" fill="var(--fill-0, white)"/>
<path d="M6.04293 5.54937C6.04009 5.5487 6.03572 5.54848 6.03048 5.54915C6.01213 5.55071 5.98441 5.55939 5.98594 5.56655C5.99424 5.56722 6.00798 5.56548 6.01955 5.56302C6.02589 5.5619 6.03157 5.56034 6.03572 5.55922L6.03856 5.55788C6.04249 5.55497 6.04883 5.5525 6.04293 5.54937ZM5.41271 7.5279L5.41273 7.53008L5.41096 7.52946C5.40593 7.54446 5.41383 7.57819 5.4254 7.58737C5.43174 7.58983 5.43939 7.58244 5.44244 7.57304C5.45162 7.55134 5.4339 7.52633 5.41271 7.5279ZM6.04293 5.54937C6.04009 5.5487 6.03572 5.54848 6.03048 5.54915C6.01213 5.55071 5.98441 5.55939 5.98594 5.56655C5.99424 5.56722 6.00798 5.56548 6.01955 5.56302C6.02589 5.5619 6.03157 5.56034 6.03572 5.55922L6.03856 5.55788C6.04249 5.55497 6.04883 5.5525 6.04293 5.54937ZM5.41271 7.5279L5.41273 7.53008L5.41096 7.52946C5.40593 7.54446 5.41383 7.57819 5.4254 7.58737C5.43174 7.58983 5.43939 7.58244 5.44244 7.57304C5.45162 7.55134 5.4339 7.52633 5.41271 7.5279ZM6.04293 5.54937C6.04009 5.5487 6.03572 5.54848 6.03048 5.54915C6.01213 5.55071 6.03157 5.56034 6.03572 5.55922C6.03572 5.55922 6.04883 5.5525 6.04293 5.54937ZM5.41271 7.5279L5.41273 7.53008L5.41096 7.52946C5.40593 7.54446 5.41383 7.57819 5.4254 7.58737C5.43174 7.58983 5.43939 7.58244 5.44244 7.57304C5.45162 7.55134 5.4339 7.52633 5.41271 7.5279Z" fill="var(--fill-0, white)"/>
<path d="M8.70218 3.68039C8.52349 3.60789 8.33234 3.5976 8.1637 3.58865C7.71807 3.55575 7.20581 3.63922 6.75755 3.81823C6.70403 3.83747 6.64767 3.85068 6.58826 3.86455C6.52338 3.87954 6.45631 3.89521 6.39012 3.91982L6.37986 3.92407C6.32918 3.94936 6.28003 3.97733 6.23262 4.0044C6.16731 4.04155 6.10571 4.0769 6.0393 4.10577L6.03384 4.10823C5.86563 4.19281 5.71665 4.2991 5.55238 4.41993C5.45451 4.49378 5.37565 4.5835 5.29963 4.6701L5.2922 4.67861C5.2341 4.74596 5.16966 4.80839 5.10128 4.87462C5.00932 4.96368 4.91407 5.05587 4.83303 5.16328L4.83128 5.16574C4.76116 5.2642 4.7048 5.37004 4.65041 5.4723C4.5971 5.57232 4.54686 5.66653 4.48548 5.75335C4.35506 5.93818 4.288 6.1503 4.22334 6.3555C4.19385 6.44836 4.16611 6.5363 4.1329 6.62178L4.13159 6.62513C4.06147 6.82227 4.03788 7.02321 4.01494 7.21721C4.00074 7.33894 3.98589 7.46492 3.95967 7.58553C3.9186 7.77215 3.87666 7.9901 3.89545 8.21565C3.91227 8.38079 3.92254 8.54436 3.92625 8.70368L3.92691 8.72382C3.93149 8.83302 3.93608 8.94579 3.9564 9.05768C3.96885 9.12794 3.99004 9.19082 4.01079 9.25191C4.02346 9.28905 4.03526 9.32418 4.04487 9.35998C4.05426 9.39914 4.06081 9.44009 4.06759 9.48328C4.07982 9.5607 4.09227 9.64081 4.12307 9.72136C4.21154 9.97131 4.36533 10.1756 4.51409 10.3732C4.56193 10.4365 4.61108 10.5019 4.65718 10.5679C4.68973 10.6133 4.72118 10.6587 4.75264 10.7037C4.88589 10.8952 5.02351 11.0935 5.21051 11.2618C5.23737 11.2859 5.26403 11.3108 5.29068 11.3356C5.36517 11.4047 5.44228 11.4763 5.52682 11.5392L5.53184 11.5428C5.58842 11.5802 5.64609 11.6081 5.70179 11.6352C5.74985 11.6587 5.79529 11.6809 5.8368 11.7073C5.8641 11.7261 5.89141 11.7453 5.91893 11.7646C6.03143 11.8442 6.14787 11.9263 6.2809 11.9821C6.61556 12.1344 6.99544 12.1875 7.32311 12.2248C7.38144 12.2327 7.44086 12.2418 7.49831 12.2506C7.55205 12.2589 7.60579 12.2671 7.65865 12.2743C7.83232 12.3 8.00402 12.3003 8.17004 12.3003C8.23033 12.3005 8.29281 12.3005 8.35506 12.3018C8.40749 12.3025 8.46014 12.3063 8.51584 12.3103C8.5781 12.3148 8.64167 12.3195 8.70611 12.3195C8.72227 12.3195 8.73866 12.3193 8.75482 12.3186C8.85378 12.3155 8.94771 12.2998 9.03837 12.2848C9.08905 12.2763 9.13689 12.2685 9.18429 12.2627C9.214 12.2606 9.24611 12.2624 9.27997 12.2644C9.29308 12.2651 9.3064 12.266 9.31842 12.2665C9.53949 12.2783 9.74614 12.1872 9.92024 12.1015C9.95563 12.0852 9.99277 12.0704 10.0321 12.055C10.0659 12.0416 10.1011 12.0279 10.1361 12.0123C10.294 11.9416 10.4288 11.8391 10.5594 11.7399C10.5979 11.7106 10.6374 11.6806 10.6765 11.6522C10.8871 11.5119 11.0826 11.3647 11.258 11.2143C11.4795 11.0212 11.6792 10.7934 11.8723 10.573C11.8981 10.5435 11.9238 10.5142 11.9485 10.4862C12.0206 10.4065 12.0798 10.3148 12.1248 10.2134L12.1261 10.2105C12.3133 9.75224 12.4739 9.33694 12.5427 8.8903L12.5436 8.88381C12.5534 8.77976 12.5676 8.67303 12.5816 8.56987C12.6063 8.38459 12.6321 8.19283 12.6351 7.9977C12.6351 7.93662 12.6358 7.87531 12.6364 7.81399C12.6377 7.70994 12.639 7.60231 12.6366 7.49558V7.48976C12.6017 7.01001 12.4947 6.5947 12.3175 6.25458C12.2105 6.05498 12.08 5.82786 11.9247 5.65623L11.9232 5.65444C11.866 5.59403 11.8157 5.52734 11.7624 5.45663C11.6908 5.36176 11.6167 5.26353 11.5228 5.17805C11.3177 4.97666 11.0824 4.81465 10.8587 4.66943C10.7988 4.62848 10.7383 4.58418 10.6798 4.54121C10.5555 4.44992 10.427 4.35571 10.2877 4.2812C10.1981 4.23152 10.1061 4.1993 10.0172 4.16842C9.97507 4.15365 9.93532 4.13978 9.89512 4.12389C9.84597 4.10487 9.80119 4.08406 9.75379 4.06191C9.69961 4.03662 9.64347 4.01044 9.58012 3.9874C9.48444 3.95473 9.38548 3.92608 9.28958 3.89856C9.0932 3.84195 8.89004 3.78355 8.71659 3.6871M5.35416 7.51022C5.36246 7.49993 5.37339 7.49142 5.38584 7.48561C5.39348 7.4818 5.40135 7.47934 5.40943 7.47777L5.41271 7.5279C5.4339 7.52633 5.45162 7.55134 5.44244 7.57304C5.43939 7.58244 5.43174 7.58983 5.4254 7.58737C5.41383 7.57819 5.40593 7.54446 5.41096 7.52946L5.35416 7.51022ZM8.0145 4.7793C8.31509 4.76722 8.61196 4.79832 8.89616 4.87216C8.99599 4.90192 9.09211 4.94466 9.19368 4.99009C9.22754 5.00508 9.2614 5.02007 9.29526 5.03461L9.2981 5.03573C9.73216 5.20736 9.92155 5.37228 10.2499 5.70792L10.2518 5.70994C10.3204 5.77662 10.3884 5.85158 10.4539 5.92408C10.4843 5.95742 10.514 5.99031 10.5437 6.02231C10.5828 6.06438 10.6315 6.11652 10.6667 6.16932C10.6866 6.19886 10.7018 6.23064 10.7191 6.26979C10.7462 6.33021 10.7748 6.39197 10.8026 6.45149C10.9133 6.68868 11.0278 6.9337 11.0664 7.18768C11.0765 7.24742 11.0795 7.30784 11.0828 7.37183C11.0859 7.42845 11.0889 7.48685 11.097 7.54771C11.1031 7.59269 11.1106 7.63812 11.1178 7.6822C11.1425 7.83436 11.1658 7.97779 11.1418 8.11406C11.123 8.21431 11.1182 8.31411 11.1134 8.41055C11.1103 8.47164 11.1077 8.52937 11.1016 8.58688C11.0878 8.68936 11.0533 8.78826 11.0169 8.89321C11.0033 8.93237 10.9891 8.97309 10.9753 9.01561C10.9614 9.05992 10.9483 9.10422 10.9349 9.14853C10.8978 9.27227 10.8628 9.3893 10.8126 9.50207C10.7082 9.73994 10.5675 9.97489 10.4052 10.1821C10.2942 10.3094 10.1586 10.4103 10.015 10.5173C9.98556 10.5392 9.95607 10.5612 9.92549 10.5844C9.53796 10.8885 9.42458 10.9031 8.94728 10.9648L8.90708 10.97C8.79261 10.9814 8.67356 10.9838 8.54293 10.9776C8.50535 10.976 8.46756 10.9753 8.43108 10.9747C8.34174 10.9731 8.25742 10.9715 8.17812 10.9565C8.04924 10.9299 7.92428 10.8856 7.79212 10.8384C7.71436 10.8109 7.63397 10.7822 7.55227 10.7574C7.25955 10.6681 6.96464 10.5195 6.67498 10.3155C6.6136 10.2729 6.55898 10.2179 6.50088 10.1595C6.49017 10.1488 6.47925 10.1378 6.46855 10.127C6.4325 10.0912 6.39537 10.0572 6.35954 10.0243C6.29139 9.96191 6.22694 9.90306 6.17364 9.83504C6.13257 9.78402 6.0985 9.72539 6.06245 9.66341C6.03799 9.62089 6.01243 9.57703 5.98359 9.53407C5.87699 9.37498 5.7599 9.18366 5.69983 8.96974L5.69896 8.96683C5.59672 8.63633 5.5716 8.2886 5.55128 7.90104C5.54692 7.69048 5.55587 7.47029 5.57859 7.22818C5.59716 7.09974 5.62206 6.96951 5.64631 6.8433C5.65985 6.77215 5.67405 6.69853 5.68672 6.6267C5.72451 6.42643 5.76733 6.19953 5.86039 5.99882C5.89075 5.93191 5.93401 5.8697 5.97988 5.80392L6.00303 5.77058C6.03034 5.73164 6.05743 5.69472 6.0843 5.65936C6.0843 5.65936 6.14 5.59604 6.15245 5.57254C6.28549 5.40987 6.41634 5.28613 6.55505 5.19035L6.55789 5.18834C6.77066 5.03148 7.01947 4.96413 7.3277 4.9111L7.33229 4.9102C7.38799 4.89789 7.44392 4.88469 7.50006 4.87149C7.67045 4.83144 7.84673 4.78982 8.01297 4.77952M5.33647 7.57108C5.33669 7.56191 5.33712 7.55274 5.33756 7.54334C5.33559 7.55251 5.33516 7.56191 5.33647 7.57108Z" fill="var(--fill-0, white)"/>
<path d="M11.7781 3.2393C11.8687 3.0773 12.0323 2.98421 12.1885 2.89672C12.3548 2.78551 12.5385 2.80207 12.7257 2.83295C13.1567 2.88665 13.2707 2.9455 13.5267 3.31001C13.6803 3.49663 13.7856 3.7562 13.7166 3.99787C13.6862 4.10236 13.6172 4.19925 13.5532 4.28675C13.4614 4.42772 13.3247 4.47493 13.1715 4.52058C12.9782 4.5886 12.7751 4.60069 12.5736 4.56511C12.3864 4.5387 12.201 4.51678 12.0568 4.38923C11.8958 4.24154 11.6881 4.00413 11.6483 3.7929C11.6343 3.71033 11.6459 3.62686 11.6647 3.54564C11.6896 3.44159 11.723 3.33463 11.7759 3.24311L11.7781 3.2393Z" fill="var(--fill-0, white)"/>
</g>
</g>
</svg>
