<svg width="16" height="27" viewBox="0 0 16 27" fill="none" xmlns="http://www.w3.org/2000/svg">
<path d="M7.23751 0.124556L7.28787 0.391098C7.70492 0.300151 8.13781 0.304482 8.56258 0.269048C10.5 0.106052 13.0186 0.443068 14.4131 1.88995C14.6738 2.16082 14.9557 2.43839 15.2062 2.73406C15.2773 2.81753 15.2976 2.93328 15.3683 3.01006C15.512 3.16636 15.8259 3.21163 15.9514 3.3014C16.0391 3.36439 15.9908 3.80299 15.9413 3.87031C15.9059 3.91795 15.7646 3.88763 15.7723 3.99394C15.7894 4.12622 15.8897 4.25654 15.8933 4.39119C15.8974 4.54513 15.739 4.79553 15.748 4.86088C15.7541 4.9038 15.8381 4.93372 15.8474 4.98254C15.8552 5.0227 15.8905 5.28334 15.895 5.33452C15.9274 5.70106 15.8617 6.26643 15.8174 6.62943C15.6452 8.04521 15.1758 9.58855 14.4119 10.7823C14.2698 11.0043 14.191 11.1764 14.0615 11.3874C13.3151 12.6052 11.3865 13.5993 10.007 14.0316C9.61517 14.1544 9.11162 14.182 8.73801 14.3367C8.41761 14.4694 8.57111 14.5198 8.53822 14.6926C8.52969 14.7371 8.46593 14.7895 8.45172 14.8469C8.13416 16.1214 8.03223 17.5005 8.02005 18.7986C8.01924 18.9029 7.93436 18.9718 7.93436 19.0726C7.93436 19.1734 8.01152 19.2325 8.0172 19.3108C8.02614 19.4348 7.94452 19.6805 7.93761 19.8215C7.91243 20.3215 8.00786 20.8172 8.05741 21.2794C8.13213 21.9774 8.02492 22.7081 8.20116 23.3841C8.30309 23.7747 8.23771 23.7999 8.26452 24.146C8.28238 24.3747 8.39284 24.6791 8.42126 24.9031C8.45294 25.1515 8.42127 25.4499 8.46959 25.7224C8.54838 26.1677 8.90329 26.1685 8.3636 26.5732C8.18005 26.711 7.65375 26.9547 7.42878 26.9854C7.34837 26.9964 6.70715 27.0098 6.67588 26.9893C6.60401 26.7925 6.67386 26.4905 6.6629 26.285C6.6032 25.1688 6.40096 24.0464 6.31244 22.9322C6.15244 20.9187 6.02655 19.1128 6.27264 17.1053C6.36645 16.3391 6.57762 15.4954 6.59995 14.7434C6.60239 14.665 6.6036 14.4824 6.52563 14.4481L5.0836 14.202C4.10574 13.8205 3.11285 13.4166 2.29092 12.7363C1.74716 12.2859 0.772139 11.1429 0.474474 10.5209C-0.856691 7.74008 0.837927 3.88212 2.77985 1.72262C3.77396 0.617088 5.3496 -0.201041 6.89559 0.0434523C6.97031 0.0552636 7.1969 0.0879414 7.2371 0.125738L7.23751 0.124556ZM10.7798 2.00531L10.9541 1.99704L11.3476 1.78877C11.2359 1.63325 11.0186 1.71239 10.8452 1.65333C10.7563 1.67499 10.7989 1.93405 10.7802 2.00531H10.7798ZM8.90979 1.85097C8.65883 1.79428 8.66208 1.93326 8.54878 2.02617C8.2767 2.2502 8.18817 2.38839 7.97781 2.65493C7.83243 2.83919 7.63182 2.96005 7.57132 3.22502C7.60543 3.25534 8.11426 2.94509 8.19954 2.90927C8.37294 2.83722 8.81355 2.78761 8.91345 2.69587C9.06898 2.55256 9.03893 2.11752 8.99182 1.92617L8.91142 1.96594L8.90898 1.85058L8.90979 1.85097ZM13.283 2.92541C13.1071 2.86871 13.0182 2.69469 12.8107 2.71399C12.9171 3.05061 12.9411 3.39392 12.8513 3.73724C12.978 3.7711 13.0422 3.67267 13.1352 3.63881C13.2777 3.58684 13.6582 3.51125 13.6996 3.35534C13.7411 3.19943 13.3605 3.03801 13.2834 2.92541H13.283ZM5.00157 5.22231C5.13071 5.08609 5.37518 4.5156 5.49985 4.30812C5.72279 3.93724 5.96319 3.52542 6.19629 3.17226C6.2503 3.09037 6.42005 3.03604 6.39325 2.87147C6.27629 2.91399 6.19101 3.00218 6.10858 3.0888C5.80848 3.40298 5.56076 3.87858 5.33457 4.25733C5.26959 4.36638 4.97355 4.77939 4.95244 4.87427C4.94107 4.92467 4.99021 4.99396 4.96666 5.02939C4.92808 5.08805 4.81356 5.03097 4.89152 5.2727C4.89518 5.27743 4.98898 5.23452 5.00117 5.22192L5.00157 5.22231ZM8.74898 3.69865C8.36482 3.70102 8.26573 4.14 7.97781 4.3089L7.65294 4.80065C7.89497 4.83923 7.94086 4.63135 8.09761 4.50379C8.15649 4.45576 8.23893 4.44513 8.28198 4.40694C8.4903 4.22307 8.75994 3.99394 8.74898 3.69865ZM14.018 4.06323C13.9047 4.00417 13.4873 4.27741 13.3817 4.35064C13.326 4.38922 13.0649 4.57584 13.0414 4.60222C13.002 4.64671 13.0101 4.66679 13.0137 4.72151C13.2785 4.68332 13.5616 4.65655 13.8003 4.80537C13.9185 4.87899 13.9514 5.07191 14.1467 5.03372C14.3274 4.75222 14.2271 4.52033 14.2564 4.2278C14.2426 4.13882 14.1134 4.14355 14.042 4.11638C14.0286 4.11126 14.0273 4.06795 14.018 4.06323ZM5.89741 7.05385C5.87426 7.0318 5.68584 6.96881 5.66147 6.98259C5.61396 7.05149 5.52624 7.21724 5.54695 7.29244C5.56319 7.35149 5.66513 7.37984 5.65782 7.4511C5.65173 7.51095 5.55913 7.5704 5.54817 7.62473C5.53558 7.68575 5.59528 7.76331 5.57781 7.78694C5.56482 7.80426 5.47833 7.80387 5.46249 7.85583C5.44584 7.91135 5.52097 7.99048 5.47467 8.09718C5.44706 8.16057 5.30046 8.20939 5.26716 8.33419C5.23386 8.459 5.27203 8.58853 5.25213 8.71333C5.22208 8.89956 5.11122 9.16571 5.09498 9.31217C5.08036 9.44327 5.18107 9.54839 5.17823 9.62123C5.17741 9.64564 5.09375 9.62556 5.0901 9.70076C5.08116 9.8795 5.20868 10.2681 5.24401 10.4563C5.26431 10.5638 5.18188 10.7295 5.363 10.8236C5.38574 10.8279 5.71467 10.6213 5.75365 10.5878C6.05416 10.3327 6.16097 9.44839 6.2434 9.04484C6.25518 8.98657 6.30675 8.93302 6.31325 8.872C6.33477 8.67003 6.16908 8.67318 6.07527 8.55546C5.86208 8.28813 5.74919 7.76253 5.84543 7.43811C5.87386 7.34244 6.04604 7.19598 5.89741 7.05424V7.05385ZM11.5977 10.0315L11.7691 10.111L11.8982 9.99604L11.9108 9.90903L11.7748 9.72281C11.7147 9.77989 11.551 9.9547 11.5977 10.0315ZM12.2653 11.4772C12.366 11.3524 12.4643 11.2303 12.5248 11.0799C12.3705 10.9224 12.1841 11.1508 12.007 11.2071C11.7918 11.2756 11.508 11.3421 11.2781 11.4059C11.1831 11.4323 11.0795 11.3937 10.9833 11.435C10.7888 11.5185 10.472 12.0496 10.2938 12.2233C10.0586 12.4524 9.54248 12.8095 9.2367 12.9308C9.13314 12.9717 8.46594 13.1378 8.46594 13.2063C8.64827 13.354 8.95202 13.2697 9.16197 13.2126C10.0712 12.965 11.6948 12.1847 12.2653 11.4772ZM8.65598 11.6555C8.56543 11.6784 8.25192 12.1264 8.07812 12.1626C8.16502 12.487 8.82939 11.9453 8.8306 11.7886C8.82086 11.7106 8.74167 11.6343 8.65598 11.6559V11.6555ZM5.98756 12.0839C6.00421 11.9764 5.96523 11.8591 5.84421 11.8469C5.57172 11.8193 5.7833 12.1461 5.98756 12.0839Z" fill="black"/>
</svg>
